<?xml version="1.0" encoding="UTF-8" standalone="no"?>
<!-- Created with Inkscape (http://www.inkscape.org/) -->

<svg
   width="128"
   height="128"
   viewBox="0 0 1.8285714 1.8285714"
   version="1.1"
   id="svg1"
   xml:space="preserve"
   inkscape:version="1.4.2 (ebf0e940d0, 2025-05-08)"
   sodipodi:docname="logo.svg"
   xmlns:inkscape="http://www.inkscape.org/namespaces/inkscape"
   xmlns:sodipodi="http://sodipodi.sourceforge.net/DTD/sodipodi-0.dtd"
   xmlns="http://www.w3.org/2000/svg"
   xmlns:svg="http://www.w3.org/2000/svg"><sodipodi:namedview
     id="namedview1"
     pagecolor="#505050"
     bordercolor="#ffffff"
     borderopacity="1"
     inkscape:showpageshadow="0"
     inkscape:pageopacity="0"
     inkscape:pagecheckerboard="1"
     inkscape:deskcolor="#d1d1d1"
     inkscape:document-units="mm"
     inkscape:zoom="2.9647587"
     inkscape:cx="84.155247"
     inkscape:cy="90.395215"
     inkscape:window-width="1920"
     inkscape:window-height="1043"
     inkscape:window-x="0"
     inkscape:window-y="0"
     inkscape:window-maximized="1"
     inkscape:current-layer="layer1" /><defs
     id="defs1" /><g
     inkscape:label="Calque 1"
     inkscape:groupmode="layer"
     id="layer1"><rect
       style="fill:#ee3124;fill-opacity:1;stroke:#ee3124;stroke-width:0.215973;stroke-linecap:round;stroke-linejoin:round;stroke-dasharray:none;stroke-opacity:1"
       id="rect3"
       width="1.5959035"
       height="1.5959035"
       x="0.11633394"
       y="0.11633394" /><path
       style="fill:#ffffff;fill-opacity:1;stroke:#ffffff;stroke-width:0.046602;stroke-dasharray:none;stroke-opacity:1"
       d="m 0.7603245,1.5308801 c -0.0553474,0.012409 -0.13110477,-0.00254 -0.17917708,-0.036643 -0.0398186,-0.02824 -0.0801189,-0.1008105 -0.084505,-0.1521705 -0.004154,-0.048634 0.009654,-0.1001667 0.0375685,-0.1402076 0.0362018,-0.051931 0.11654809,-0.08945 0.1533205,-0.090762 0.0166189,-5.955e-4 0.0302589,-0.00212 0.0303084,-0.0034 5.091e-5,-0.00128 0.003108,-0.020789 0.006799,-0.043366 l 0.006709,-0.041046 -0.0242538,-0.021547 -0.0242494,-0.0215546 -0.0284593,0.016431 c -0.018777,0.01084 -0.0329487,0.0152265 -0.04165,0.0128973 -0.0169346,-0.00453 -0.0189743,-0.00857 -0.0132983,-0.0261912 0.006679,-0.0207322 0.13740811,-0.0967008 0.157254,-0.0913835 0.00725,0.001944 0.0143738,0.005588 0.0158249,0.00809 0.006349,0.0110009 -0.005896,0.0317842 -0.0253406,0.0430108 -0.0114976,0.006636 -0.020422,0.0129066 -0.0198351,0.0139232 5.8707e-4,0.001017 0.0521574,0.0438829 0.11459695,0.0952517 0.0793169,0.065254 0.11650508,0.092396 0.12341258,0.090073 0.014108,-0.00475 0.0487351,-0.058389 0.0551341,-0.085414 0.00298,-0.01258 0.00627,-0.0948135 0.00733,-0.18273671 l 0.00192,-0.1598582 -0.0335751,-0.029392 -0.033575,-0.0293921 -0.0326927,0.0188753 c -0.0183333,0.0105847 -0.0371162,0.0176919 -0.0427644,0.0161789 -0.0151269,-0.00405 -0.0218219,-0.0200238 -0.0138011,-0.0329339 0.0108561,-0.017479 0.079229,-0.0550516 0.0933155,-0.0512745 0.00647,0.001732 0.028906,0.0175161 0.0498561,0.0350729 l 0.038092,0.0319191 0.034049,-0.0196579 0.034049,-0.0196579 -0.024469,-0.0423831 c -0.020296,-0.0351537 -0.023353,-0.0441783 -0.017941,-0.052896 0.00414,-0.006666 0.010973,-0.0105689 0.018669,-0.0106757 0.010322,-1.4075e-4 0.017093,0.008424 0.045168,0.0570432 0.021591,0.0373987 0.032093,0.0606952 0.030332,0.0672769 -0.0016,0.005983 -0.018371,0.0191135 -0.041273,0.0323403 l -0.038574,0.0222707 0.016968,0.0132646 c 0.1089274,0.0852497 0.3529299,0.33427781 0.087373,0.13128923 -9.567e-4,-7.3122e-4 -0.072379,-0.0599607 -0.1081936,-0.0888703 -0.015021,-0.0121205 -0.015221,-0.0105422 -0.01697,0.13317493 -9.753e-4,0.0799939 -0.00593,0.16007735 -0.011008,0.17796325 -0.015697,0.055257 -0.043877,0.0906 -0.1030878,0.1293165 l -0.0512894,0.033539 0.008424,0.037708 c 0.0192944,0.2141055 -0.156491,0.2565041 -0.156491,0.2565041 z M 0.844922,1.4178646 C 0.868914,1.3857006 0.8813907,1.3312686 0.873689,1.2923284 0.87066,1.2770404 0.865998,1.2639444 0.8633338,1.2632244 c -0.002676,-7.168e-4 -0.0375058,0.017547 -0.077407,0.040585 -0.0724284,0.041815 -0.087037,0.046284 -0.0966807,0.02958 -0.002193,-0.0038 0.001548,-0.044195 0.008317,-0.089769 0.0137512,-0.092598 0.0122645,-0.095881 -0.0363073,-0.080197 -0.0417489,0.013481 -0.0522454,0.020516 -0.0789317,0.052907 -0.0414596,0.050318 -0.0514338,0.1124267 -0.0277322,0.1726848 0.020723,0.052685 0.0867665,0.098799 0.14395266,0.1005135 0.0612012,0.00184 0.1090089,-0.02157 0.14637854,-0.071663 z M 0.9126236,1.1756743 c 1.545e-5,-0.00682 -0.13346373,-0.1162867 -0.1383547,-0.1134626 -0.003847,0.00222 -0.0356763,0.2091792 -0.0329074,0.2139754 0.002541,0.0044 0.17125075,-0.094606 0.1712621,-0.1005128 z"
       id="path1"
       sodipodi:nodetypes="csssccccccsccsssscccscccscccscccsccscsccscccccccccssccccccccsscs" /><path
       style="fill:#ffffff;fill-opacity:1;stroke-width:0.961917"
       d="m 0.14185481,1.1770402 c -0.006166,-0.00125 -0.0143595,-0.00433 -0.018211,-0.00685 -0.02493,-0.016334 -0.0260083,-0.072995 -0.002308,-0.1214776 0.00759,-0.015537 0.0152974,-0.025538 0.0341452,-0.044329 0.0299339,-0.0298433 0.0565117,-0.0475889 0.12216949,-0.0815683 0.0598592,-0.0309786 0.0825692,-0.0455392 0.0998606,-0.0640252 0.0156726,-0.0167547 0.0233073,-0.0334998 0.0250233,-0.0548823 0.003646,-0.0454767 -0.0257102,-0.0796746 -0.0749806,-0.0873345 -0.057085,-0.008879 -0.10376895,0.0182563 -0.13150077,0.0764253 -0.0137044,0.028747 -0.0228725,0.0378909 -0.0406603,0.0405584 -0.0274993,0.004127 -0.0493425,-0.015534 -0.0489848,-0.0440848 6.3285e-4,-0.050418 0.0402948,-0.10885434 0.0922114,-0.13586154 0.0674017,-0.035062 0.16276139,-0.0345839 0.22293746,0.001116 0.022583,0.0133985 0.048549,0.041249 0.0591321,0.0634232 0.0220549,0.0462124 0.021621,0.11197084 -0.001039,0.15803432 -0.0197549,0.0401514 -0.0533201,0.0674199 -0.13467789,0.10941313 -0.077851,0.040183 -0.10206666,0.0578736 -0.11564143,0.0844832 -0.0102223,0.020038 -0.0198251,0.018525 0.12284686,0.019352 0.12472368,7.234e-4 0.12841476,8.976e-4 0.13559867,0.00626 0.0118027,0.00882 0.0175655,0.018386 0.0190614,0.031663 0.002049,0.01815 -0.005089,0.034829 -0.0187815,0.043891 L 0.4771613,1.1784661 0.31511645,1.178891 C 0.22598435,1.1791254 0.14802028,1.1782977 0.14185544,1.177051 Z"
       id="path2" /><path
       style="fill:#ffffff;fill-opacity:1;stroke-width:0.961917"
       d="m 0.5544247,0.81917319 c -0.006166,-0.001241 -0.0143596,-0.004328 -0.0182111,-0.006848 -0.02493,-0.0163344 -0.0260083,-0.0729952 -0.002308,-0.12147768 0.007589,-0.0155368 0.0152974,-0.0255379 0.0341452,-0.0443291 0.029934,-0.0298436 0.0565117,-0.047589 0.12216948,-0.0815687 0.0598592,-0.0309785 0.0825692,-0.0455392 0.0998605,-0.0640252 0.0156726,-0.0167547 0.0233073,-0.0334999 0.0250233,-0.0548823 0.003646,-0.0454767 -0.0257102,-0.0796748 -0.0749806,-0.0873345 -0.057085,-0.008879 -0.10376895,0.0182563 -0.13150077,0.0764253 -0.0137044,0.028747 -0.0228725,0.0378909 -0.0406603,0.0405584 -0.0274993,0.004127 -0.0493426,-0.015534 -0.0489848,-0.0440848 6.3285e-4,-0.050418 0.0402948,-0.10885432 0.0922114,-0.13586152 0.0674017,-0.035062 0.16276138,-0.0345839 0.22293745,0.001116 0.022583,0.0133985 0.0485489,0.041249 0.0591321,0.0634232 0.0220548,0.0462124 0.021621,0.11197082 -0.001039,0.15803429 -0.0197549,0.0401514 -0.0533201,0.0674199 -0.13467788,0.10941311 -0.077851,0.0401832 -0.10206666,0.0578738 -0.11564144,0.0844833 -0.0102223,0.0200378 -0.0198251,0.0185246 0.12284687,0.0193519 0.12472367,7.2346e-4 0.12841475,8.9419e-4 0.13559874,0.006262 0.0118028,0.008811 0.0175656,0.018387 0.0190614,0.0316625 0.002049,0.0181494 -0.005089,0.0348291 -0.0187815,0.0438905 l -0.0108947,0.007215 -0.16204493,4.2487e-4 c -0.0891332,2.3271e-4 -0.16709719,-5.9512e-4 -0.17326203,-0.001839 z"
       id="path2-9" /><path
       style="fill:#ffffff;stroke-width:0.227154"
       d="M 1.2133631,1.1425183 C 1.1252453,1.0727527 1.1125526,0.98121493 1.1454406,0.90855424 c 0.037597,-0.0449239 0.056192,-0.005332 0.063618,0.0485798 0.027581,0.15685316 0.1673111,0.16210386 0.2226368,0.10919956 0.040513,-0.030504 0.048716,-0.0845561 0.049337,-0.0922164 0.00684,-0.0844376 -0.058844,-0.14588914 -0.162312,-0.15184842 -0.046877,-0.002699 -0.07568,-0.0244229 -0.077665,-0.0585655 -4.433e-4,-0.007555 0.00151,-0.020325 0.00432,-0.0283825 0.0031,-0.008888 0.033393,-0.0598512 0.076991,-0.12949234 0.066579,-0.10639083 0.072801,-0.11544275 0.084616,-0.12300069 0.024636,-0.0157706 0.021915,-0.0169953 0.1631495,0.0734483 0.083574,0.0535191 0.1286845,0.0838908 0.1370016,0.0922357 0.028486,0.0285957 0.020393,0.0796083 -0.015347,0.0967444 C 1.6703785,0.7555221 1.6689685,0.7548522 1.5519931,0.6788374 1.4527871,0.6143692 1.4457758,0.6102614 1.4432256,0.6151083 c -0.0015,0.00285 -0.018497,0.0298205 -0.03778,0.0599249 -0.019275,0.0301094 -0.03621,0.057003 -0.037642,0.0597555 -0.00218,0.004227 0.0013,0.005413 0.02234,0.007565 0.035922,0.003681 0.060762,0.0130582 0.096367,0.0363826 0.053659,0.0351501 0.075931,0.0619974 0.089588,0.11937253 0.00861,0.0361632 0.00567,0.0799599 -0.00489,0.11612487 C 1.515665,1.2044446 1.334471,1.2384913 1.2133804,1.1425203 Z"
       id="path3"
       sodipodi:nodetypes="ccccccccccsccsccccccscc" /></g></svg>
